<svg width="367" height="110" viewBox="0 0 367 110" fill="none" xmlns="http://www.w3.org/2000/svg">
<rect width="110" height="110" rx="22" fill="#10B981"/>
<rect x="9.56667" y="9.56667" width="90.8667" height="90.8667" rx="19.3222" stroke="white" stroke-width="3.13333"/>
<path d="M90 52.8723C90 53.4525 89.7695 54.0089 89.3593 54.4191C88.9491 54.8294 88.3927 55.0598 87.8125 55.0598H22.1875C21.6073 55.0598 21.0509 54.8294 20.6407 54.4191C20.2305 54.0089 20 53.4525 20 52.8723C20 52.2922 20.2305 51.7358 20.6407 51.3255C21.0509 50.9153 21.6073 50.6848 22.1875 50.6848H29.8219L42.8102 32.7993C43.2037 32.2589 43.7159 31.8159 44.3074 31.5043C44.8989 31.1927 45.5539 31.0208 46.2222 31.0018C46.8904 30.9828 47.5542 31.1171 48.1624 31.3946C48.7706 31.6721 49.3072 32.0853 49.7309 32.6024L53.2445 36.6766L53.2992 36.7395C53.5028 36.9953 53.7615 37.2018 54.0559 37.3438C54.3504 37.4858 54.6731 37.5595 55 37.5595C55.3269 37.5595 55.6496 37.4858 55.9441 37.3438C56.2385 37.2018 56.4972 36.9953 56.7008 36.7395L56.7555 36.6766L60.2691 32.6024C60.6928 32.0853 61.2294 31.6721 61.8376 31.3946C62.4458 31.1171 63.1096 30.9828 63.7778 31.0018C64.4461 31.0208 65.1011 31.1927 65.6926 31.5043C66.2841 31.8159 66.7963 32.2589 67.1898 32.7993L80.1781 50.6848H87.8125C88.3927 50.6848 88.9491 50.9153 89.3593 51.3255C89.7695 51.7358 90 52.2922 90 52.8723ZM69.2188 59.4348C66.7977 59.4353 64.4618 60.3279 62.6575 61.9421C60.8531 63.5563 59.7069 65.7788 59.4379 68.1848H50.5621C50.2925 65.781 49.1472 63.5606 47.3449 61.9474C45.5426 60.3341 43.2093 59.441 40.7904 59.4383C38.3716 59.4357 36.0364 60.3238 34.2305 61.9331C32.4247 63.5424 31.2746 65.7603 30.9997 68.1635C30.7248 70.5667 31.3445 72.987 32.7403 74.9625C34.1361 76.938 36.2105 78.3304 38.5675 78.874C40.9245 79.4176 43.3991 79.0744 45.5192 77.9098C47.6393 76.7451 49.2563 74.8407 50.0617 72.5598H59.9383C60.5398 74.2613 61.5976 75.7647 62.9959 76.9056C64.3941 78.0465 66.0792 78.7811 67.8667 79.029C69.6543 79.2769 71.4757 79.0287 73.1317 78.3114C74.7877 77.594 76.2146 76.4353 77.2565 74.9617C78.2984 73.4882 78.9152 71.7566 79.0395 69.9562C79.1637 68.1558 78.7906 66.3559 77.9609 64.7532C77.1313 63.1505 75.877 61.8068 74.3352 60.8688C72.7934 59.9308 71.0234 59.4348 69.2188 59.4348Z" fill="white"/>
<path d="M85 55.1429V52.2857V50.1429L85.0286 49.6524V48L91.4286 53L85 58V55.1429Z" fill="white"/>
<path d="M190.98 55.3H183V82.54H174.96V29.26H183V48.58H190.98V55.3ZM160.62 51.58C161.42 51.58 162.08 51.92 162.6 52.6L172.14 65.08L165.9 70.36L156.18 56.92C156.06 56.68 155.88 56.56 155.64 56.56C155.44 56.56 155.24 56.68 155.04 56.92C153.96 59 152.6 61.16 150.96 63.4C149.36 65.64 147.26 68.28 144.66 71.32L138.48 66.1C142.96 61.18 146.16 56.74 148.08 52.78C150.04 48.78 151.02 44.38 151.02 39.58V32.8H159.18V39.52C159.18 44.52 158.36 49.12 156.72 53.32L157.08 53.5L158.52 52.36C159.16 51.84 159.86 51.58 160.62 51.58ZM229.056 40.24H199.716V33.46H237.036V38.08C237.036 42.96 236.776 47.66 236.256 52.18C235.776 56.66 235.156 60.58 234.396 63.94L226.596 62.68C228.116 55.6 228.936 48.12 229.056 40.24ZM243.036 70.06V76.84H193.476V70.06H210.756V52.6H218.796V70.06H243.036ZM312.212 41.98V48.7H304.232V61.78H296.192V29.26H304.232V41.98H312.212ZM292.112 59.02C288.792 59.62 285.312 60.08 281.672 60.4C278.032 60.72 273.472 60.88 267.992 60.88H262.412V31.96H287.972V38.44H270.152V42.94H287.252V49.36H270.152V54.46C274.512 54.42 278.292 54.26 281.492 53.98C284.692 53.66 287.912 53.24 291.152 52.72L292.112 59.02ZM269.852 64.18H304.292V84.7H274.952C271.552 84.7 269.852 83 269.852 79.6V64.18ZM277.772 78.34H296.372V70.54H277.772V78.34ZM360.788 29.26V60.88H352.748V48.1H343.928V41.56H352.748V29.26H360.788ZM320.468 60.7L314.468 55.6C318.668 52.68 321.768 49.9 323.768 47.26C325.768 44.58 326.848 41.8 327.008 38.92H316.568V32.26H345.368V38.92H335.048C335.048 42.12 334.268 45.16 332.708 48.04L333.068 48.28L334.748 47.08C335.428 46.56 336.128 46.3 336.848 46.3C337.528 46.3 338.268 46.56 339.068 47.08L347.888 54.4L341.888 59.62L332.468 51.28C332.068 51 331.708 50.86 331.388 50.86C331.028 50.86 330.728 50.98 330.488 51.22C329.328 52.7 327.948 54.18 326.348 55.66C324.748 57.14 322.788 58.82 320.468 60.7ZM360.788 73.48C360.788 75.8 360.088 77.86 358.688 79.66C357.328 81.46 355.308 82.86 352.628 83.86C349.988 84.86 346.808 85.36 343.088 85.36C339.368 85.36 336.168 84.86 333.488 83.86C330.848 82.86 328.828 81.46 327.428 79.66C326.028 77.86 325.328 75.8 325.328 73.48C325.328 71.16 326.028 69.1 327.428 67.3C328.828 65.5 330.848 64.1 333.488 63.1C336.168 62.1 339.368 61.6 343.088 61.6C346.808 61.6 349.988 62.1 352.628 63.1C355.308 64.1 357.328 65.5 358.688 67.3C360.088 69.1 360.788 71.16 360.788 73.48ZM352.388 73.06C352.388 71.54 351.608 70.3 350.048 69.34C348.528 68.34 346.208 67.84 343.088 67.84C339.968 67.84 337.628 68.34 336.068 69.34C334.508 70.3 333.728 71.54 333.728 73.06V73.96C333.728 75.44 334.508 76.66 336.068 77.62C337.628 78.62 339.968 79.12 343.088 79.12C346.208 79.12 348.528 78.62 350.048 77.62C351.608 76.66 352.388 75.44 352.388 73.96V73.06Z" fill="#10B981"/>
</svg>
