<svg width="110" height="110" viewBox="0 0 110 110" fill="none" xmlns="http://www.w3.org/2000/svg">
<rect width="110" height="110" rx="22" fill="#10B981"/>
<rect x="9.56667" y="9.56667" width="90.8667" height="90.8667" rx="19.3222" stroke="white" stroke-width="3.13333"/>
<path d="M90 52.8723C90 53.4525 89.7695 54.0089 89.3593 54.4191C88.9491 54.8294 88.3927 55.0598 87.8125 55.0598H22.1875C21.6073 55.0598 21.0509 54.8294 20.6407 54.4191C20.2305 54.0089 20 53.4525 20 52.8723C20 52.2922 20.2305 51.7358 20.6407 51.3255C21.0509 50.9153 21.6073 50.6848 22.1875 50.6848H29.8219L42.8102 32.7993C43.2037 32.2589 43.7159 31.8159 44.3074 31.5043C44.8989 31.1927 45.5539 31.0208 46.2222 31.0018C46.8904 30.9828 47.5542 31.1171 48.1624 31.3946C48.7706 31.6721 49.3072 32.0853 49.7309 32.6024L53.2445 36.6766L53.2992 36.7395C53.5028 36.9953 53.7615 37.2018 54.0559 37.3438C54.3504 37.4858 54.6731 37.5595 55 37.5595C55.3269 37.5595 55.6496 37.4858 55.9441 37.3438C56.2385 37.2018 56.4972 36.9953 56.7008 36.7395L56.7555 36.6766L60.2691 32.6024C60.6928 32.0853 61.2294 31.6721 61.8376 31.3946C62.4458 31.1171 63.1096 30.9828 63.7778 31.0018C64.4461 31.0208 65.1011 31.1927 65.6926 31.5043C66.2841 31.8159 66.7963 32.2589 67.1898 32.7993L80.1781 50.6848H87.8125C88.3927 50.6848 88.9491 50.9153 89.3593 51.3255C89.7695 51.7358 90 52.2922 90 52.8723ZM69.2188 59.4348C66.7977 59.4353 64.4618 60.3279 62.6575 61.9421C60.8531 63.5563 59.7069 65.7788 59.4379 68.1848H50.5621C50.2925 65.781 49.1472 63.5606 47.3449 61.9474C45.5426 60.3341 43.2093 59.441 40.7904 59.4383C38.3716 59.4357 36.0364 60.3238 34.2305 61.9331C32.4247 63.5424 31.2746 65.7603 30.9997 68.1635C30.7248 70.5667 31.3445 72.987 32.7403 74.9625C34.1361 76.938 36.2105 78.3304 38.5675 78.874C40.9245 79.4176 43.3991 79.0744 45.5192 77.9098C47.6393 76.7451 49.2563 74.8407 50.0617 72.5598H59.9383C60.5398 74.2613 61.5976 75.7647 62.9959 76.9056C64.3941 78.0465 66.0792 78.7811 67.8667 79.029C69.6543 79.2769 71.4757 79.0287 73.1317 78.3114C74.7877 77.594 76.2146 76.4353 77.2565 74.9617C78.2984 73.4882 78.9152 71.7566 79.0395 69.9562C79.1637 68.1558 78.7906 66.3559 77.9609 64.7532C77.1313 63.1505 75.877 61.8068 74.3352 60.8688C72.7934 59.9308 71.0234 59.4348 69.2188 59.4348Z" fill="white"/>
<path d="M85 55.1429V52.2857V50.1429L85.0286 49.6524V48L91.4286 53L85 58V55.1429Z" fill="white"/>
</svg>
